<?xml version="1.0" encoding="utf-8"?>
<!-- Generator: Adobe Illustrator 22.1.0, SVG Export Plug-In . SVG Version: 6.00 Build 0)  -->
<svg version="1.1" id="Layer_1" xmlns="http://www.w3.org/2000/svg" xmlns:xlink="http://www.w3.org/1999/xlink" x="0px" y="0px"
	 viewBox="0 0 100 100" style="enable-background:new 0 0 100 100;" xml:space="preserve">
<title>FT</title>
<path d="M2.1,23v2.4c5.3,0,7.2,0.3,7.2,4.6v40.4c0,4.3-1.9,4.6-7.2,4.6v2.4h25.6V75c-7.3,0-8.4-0.9-8.4-4.8V50.9h6.6
	c7.1,0,7.5,1.1,8,6.6H36V41.2h-2.1c-0.5,5.6-0.9,6.7-8,6.7h-6.6V25.7h8.3c10.4,0,12.8,2,13.9,13.7h2.2V22.5
	c-1.4,0.3-3.1,0.4-7.6,0.4H2.1z M90.3,23H57.4c-4.6,0-6.2-0.2-7.6-0.4v16.8H52c1.2-11.7,3.5-13.7,13.9-13.7h2.9v44.5
	c0,4.2-1.7,4.8-8.4,4.8v2.4h26.9V75c-6.7,0-8.4-0.6-8.4-4.8V25.7h2.9c10.4,0,12.8,2,13.9,13.7h2.2V22.5C96.5,22.8,94.9,23,90.3,23
	L90.3,23z"/>
</svg>
