<svg height="230" viewBox="0 0 1300 230" width="1300" xmlns="http://www.w3.org/2000/svg"><g fill="#fff"><path d="m432.73 44.49a12.22 12.22 0 0 1 3.25 8.9v112.37a12.37 12.37 0 0 1 -3.35 9 12.86 12.86 0 0 1 -17.53 0 12.52 12.52 0 0 1 -3.26-9v-47.28h-69.17v47.28a12.34 12.34 0 0 1 -3.36 9 11.84 11.84 0 0 1 -8.91 3.45 11.6 11.6 0 0 1 -8.71-3.45 12.34 12.34 0 0 1 -3.36-9v-112.37a12.22 12.22 0 0 1 3.26-8.9 11.73 11.73 0 0 1 8.81-3.35 11.54 11.54 0 0 1 12.27 12.25v45.18h69.17v-45.18a12.18 12.18 0 0 1 3.26-8.9 13.27 13.27 0 0 1 17.63 0z"/><path d="m545.78 84.59a10.79 10.79 0 0 1 3.22 8.24v74.27a10.35 10.35 0 0 1 -3.35 8 12.43 12.43 0 0 1 -8.72 3.07c-3.44 0-9.54-5.94-11.58-7.85s0 0-9.58 4.78-12.63 3.45-18.89 3.45q-34.49 0-34.48-38.67v-47.05a10.79 10.79 0 0 1 3.25-8.24 12.14 12.14 0 0 1 8.63-3.06 12.39 12.39 0 0 1 8.81 3.06 10.79 10.79 0 0 1 3.26 8.24v47.28q0 10 4 14.74t12.65 4.79q10 0 16-6.61t6-17.51v-42.69a10.79 10.79 0 0 1 3.26-8.24 12.13 12.13 0 0 1 8.74-3.06 12.42 12.42 0 0 1 8.78 3.06z"/><path d="m708.75 90.24q8.14 9.11 8.14 29.39v47.09q0 5.55-3.35 8.52a12.73 12.73 0 0 1 -8.72 3 12.45 12.45 0 0 1 -8.53-3q-3.35-3-3.35-8.52v-47.09q0-10.53-3.74-15t-11.4-4.5q-9.39 0-14.94 6.41t-5.56 17.46v42.69q0 5.55-3.35 8.52a12.45 12.45 0 0 1 -8.53 3 12.79 12.79 0 0 1 -8.62-3q-3.45-3-3.45-8.52v-47.06q0-10.53-3.74-15t-11.4-4.5q-9.39 0-14.85 6.41t-5.46 17.46v42.69q0 5.55-3.45 8.52a12.81 12.81 0 0 1 -8.62 3 12.43 12.43 0 0 1 -8.53-3q-3.36-3-3.36-8.52v-74.05c0-3.58 1.16-6.32 3.46-8.24a13 13 0 0 1 8.6-2.87 11.89 11.89 0 0 1 8.14 2.78c2.11 1.85 3.17 4.49 3.17 7.94v4.6a29.92 29.92 0 0 1 11.78-11.68 34.85 34.85 0 0 1 17-4q21.07 0 28.17 17.61a31.66 31.66 0 0 1 12.45-12.83 36.41 36.41 0 0 1 18.58-4.78q15.31-.02 23.46 9.07z"/><path d="m810.87 90.82q9.5 9.66 9.49 29.38v46.71a10.83 10.83 0 0 1 -3.06 8.14c-2 2-4.87 3-8.44 3a11.22 11.22 0 0 1 -8.14-3.06 10.67 10.67 0 0 1 -3.16-8v-4.29a25 25 0 0 1 -10.26 11.68 30.81 30.81 0 0 1 -16.19 4.21 37.64 37.64 0 0 1 -17.05-3.83 30.23 30.23 0 0 1 -12.06-10.53 26.57 26.57 0 0 1 -4.41-14.93q0-10.34 5.27-16.27t17.14-8.62q11.88-2.67 32.77-2.68h4.79v-4.4q0-9.37-4-13.69t-13-4.31a41.55 41.55 0 0 0 -11.36 1.67q-5.76 1.64-13.61 4.69c-3.32 1.66-5.74 2.49-7.28 2.49a7.2 7.2 0 0 1 -5.65-2.49 9.44 9.44 0 0 1 -2.2-6.51 9.75 9.75 0 0 1 1.63-5.64 15.31 15.31 0 0 1 5.45-4.5 62.74 62.74 0 0 1 16-5.74 82.34 82.34 0 0 1 18.3-2.11q19.55-.04 29.03 9.63zm-19.35 64.12q6-6.41 6-16.55v-4h-3.45a131.67 131.67 0 0 0 -19.93 1.15q-7.09 1.14-10.15 4a10.18 10.18 0 0 0 -3.07 7.84 13 13 0 0 0 4.31 10.06 15.23 15.23 0 0 0 10.63 3.92q9.62 0 15.66-6.42z"/><path d="m924.21 90.72q8.25 9.57 8.24 28.91v47.09q0 5.35-3.16 8.42c-2.11 2-5 3.07-8.72 3.07s-6.64-1-8.81-3.07a11 11 0 0 1 -3.26-8.42v-45.72q0-10.92-4.12-15.89t-12.93-5q-10.35 0-16.58 6.51t-6.23 17.38v42.69a11 11 0 0 1 -3.25 8.42 12.38 12.38 0 0 1 -8.82 3.07c-3.7 0-6.61-1-8.72-3.07a11.2 11.2 0 0 1 -3.16-8.42v-74.05a10.56 10.56 0 0 1 3.26-8 12.39 12.39 0 0 1 8.81-3.06 11.42 11.42 0 0 1 8.15 3 10.17 10.17 0 0 1 3.16 7.75v5.17a32.37 32.37 0 0 1 12.84-12.06 38.73 38.73 0 0 1 18.2-4.21q16.89-.08 25.1 9.49z"/><path d="m984.86 170.35a56.3 56.3 0 0 1 -22.33-24.12q-7.86-15.69-7.85-36.75t7.76-36.66a55.7 55.7 0 0 1 22.32-24q14.55-8.41 34.3-8.42t34.2 8.42a55.86 55.86 0 0 1 22.23 24q7.76 15.6 7.76 36.66t-7.85 36.75a56.36 56.36 0 0 1 -22.33 24.12q-14.46 8.43-34 8.43-19.75 0-34.21-8.43zm63.23-24.12q10.44-12.81 10.44-36.75t-10.44-36.66q-10.46-12.72-29-12.73-18.78 0-29.22 12.73t-10.47 36.66q0 23.94 10.44 36.75t29.22 12.83q18.59 0 29.03-12.83z"/><path d="m1176.66 87.28a40.56 40.56 0 0 1 14.75 17.32q5.28 11.19 5.27 25.75t-5.27 25.45a38.67 38.67 0 0 1 -36.31 22.79 37.22 37.22 0 0 1 -17.82-4.21 29.55 29.55 0 0 1 -12.07-11.68v39.05a9.93 9.93 0 0 1 -3.26 7.85 12.57 12.57 0 0 1 -8.62 2.87 12.44 12.44 0 0 1 -8.72-3.06 10.37 10.37 0 0 1 -3.35-8v-108.58a11 11 0 0 1 3.16-8.24 11.79 11.79 0 0 1 8.53-3.06 12.13 12.13 0 0 1 8.62 3.06 10.79 10.79 0 0 1 3.26 8.24v4.78a29.36 29.36 0 0 1 12.17-12.15 37.32 37.32 0 0 1 18.11-4.31 38.84 38.84 0 0 1 21.55 6.13zm-10.25 65q6.31-7.76 6.32-21.92 0-14.55-6.32-22.59t-17.63-8q-11.51 0-17.72 7.85t-6.23 22.38q0 14.37 6.23 22.21t17.72 7.85q11.29-.06 17.63-7.79z"/><path d="m1216.61 170.35q-6.13-3.63-6.13-10.33a9 9 0 0 1 2.11-6.22 6.62 6.62 0 0 1 5.17-2.4q3.26 0 9 3.07a84.12 84.12 0 0 0 11.2 4.4 45.79 45.79 0 0 0 12.94 1.53q8.05 0 12.55-2.68a8.31 8.31 0 0 0 4.51-7.46 7.2 7.2 0 0 0 -1.82-5.17q-1.83-1.92-6.52-3.54a137 137 0 0 0 -14.28-3.74q-17.05-3.44-24.43-9.76t-7.37-17.42a25.14 25.14 0 0 1 5-15.22 32.3 32.3 0 0 1 13.7-10.53 49.91 49.91 0 0 1 19.83-3.73 59.45 59.45 0 0 1 15.52 2 47 47 0 0 1 13.41 5.85q6.13 3.82 6.14 10.14a9.82 9.82 0 0 1 -2.11 6.41 6.44 6.44 0 0 1 -5.18 2.59 10.41 10.41 0 0 1 -4.11-.86 55.05 55.05 0 0 1 -5.08-2.59 80.3 80.3 0 0 0 -9.58-4.3 29.86 29.86 0 0 0 -10-1.44q-7.08 0-11.21 2.88a9 9 0 0 0 -4.12 7.84 8 8 0 0 0 4.25 7.33q4.21 2.49 16.29 5 12.83 2.67 20.12 6.12t10.44 8.61q3.17 5.18 3.16 13.21 0 13-10.83 20.87t-28.84 7.85q-20.89-.07-33.73-8.31z"/><rect height="18.58" rx="9.29" transform="matrix(.0348995 -.99939083 .99939083 .0348995 68.28 215.43)" width="128.8" x="81.28" y="63.07"/><rect height="73.93" rx="9.29" transform="matrix(.99939083 -.0348995 .0348995 .99939083 -3.84 3.69)" width="18.58" x="94.53" y="75.07"/><rect height="73.93" rx="9.29" transform="matrix(.9961947 -.08715574 .08715574 .9961947 -10.34 6.4)" width="18.58" x="58.89" y="84.78"/><path d="m180.21 109.54a9.18 9.18 0 0 0 -9.21 9.17c0 1.28.25 16.91.18 18.19-1.77 33-33.51 63.93-68.44 66.52-34.62.54-61.19-18.7-66.84-62.75 0-.21-6.59-82.61-6.59-82.61a9.51 9.51 0 0 0 -9.82-9.06 9.5 9.5 0 0 0 -9.49 9.4s6.38 83.93 6.39 84.63c5.9 52.55 39.16 79.79 87.47 78.95s84.32-42.54 86.07-85.07c.06-1.39-.17-17.14-.2-18.53a9.19 9.19 0 0 0 -9.52-8.84z"/></g></svg>