<svg xmlns="http://www.w3.org/2000/svg" width="202" height="230" viewBox="0 0 202 230"><title>humanops-logo-iconmark</title><path d="M144.46,136.73h0a9.33,9.33,0,0,1-9-9.61L139.34,17A9.32,9.32,0,0,1,149,8h0a9.31,9.31,0,0,1,9,9.6l-3.85,110.16A9.33,9.33,0,0,1,144.46,136.73Z" style="fill:#fff"/><rect x="95.56" y="75.07" width="18.58" height="73.93" rx="9.29" ry="9.29" transform="translate(-3.84 3.72) rotate(-2)" style="fill:#fff"/><rect x="59.92" y="84.78" width="18.58" height="73.93" rx="9.29" ry="9.29" transform="translate(-10.34 6.49) rotate(-5)" style="fill:#fff"/><path d="M181.24,109.54a9.18,9.18,0,0,0-9.21,9.17c0,1.28.25,16.91.18,18.19-1.78,33-33.51,63.93-68.44,66.52-34.62.54-61.19-18.7-66.84-62.75,0-.21-6.59-82.61-6.59-82.61A9.51,9.51,0,0,0,20.52,49,9.5,9.5,0,0,0,11,58.4s6.38,83.93,6.39,84.63c5.9,52.55,39.16,79.79,87.47,78.95s84.32-42.54,86.07-85.07c.06-1.39-.18-17.14-.2-18.53A9.19,9.19,0,0,0,181.24,109.54Z" style="fill:#fff"/></svg>