<?xml version="1.0" encoding="utf-8"?>
<!-- Generator: Adobe Illustrator 22.1.0, SVG Export Plug-In . SVG Version: 6.00 Build 0)  -->
<svg version="1.1" id="Layer_1" xmlns="http://www.w3.org/2000/svg" xmlns:xlink="http://www.w3.org/1999/xlink" x="0px" y="0px"
	 viewBox="0 0 1300 274" style="enable-background:new 0 0 1300 274;" xml:space="preserve">
<style type="text/css">
	.st0{fill:#FFFFFF;}
	.st1{fill:none;}
</style>
<g>
	<path class="st0" d="M432.7,46.4c2.2,2.4,3.4,5.6,3.2,8.9v112.4c0.1,3.3-1.1,6.6-3.4,9c-4.9,4.6-12.6,4.6-17.5,0
		c-2.2-2.4-3.4-5.7-3.3-9v-47.3h-69.2v47.3c0.1,3.3-1.1,6.6-3.4,9c-2.4,2.4-5.6,3.6-8.9,3.4c-3.3,0.1-6.4-1.1-8.7-3.4
		c-2.3-2.4-3.5-5.7-3.4-9V55.3c-0.2-3.3,1-6.5,3.3-8.9c2.3-2.3,5.5-3.5,8.8-3.3c6.4-0.4,11.9,4.4,12.3,10.8c0,0.5,0,1,0,1.5v45.2
		h69.2V55.3c-0.2-3.3,1-6.5,3.3-8.9C420.1,42,427.7,42,432.7,46.4L432.7,46.4z"/>
	<path class="st0" d="M545.8,86.5c2.2,2.2,3.4,5.2,3.2,8.2v74.3c0.1,3-1.1,6-3.3,8c-2.4,2.1-5.5,3.2-8.7,3.1
		c-3.4,0-9.5-5.9-11.6-7.9s0,0-9.6,4.8s-12.6,3.4-18.9,3.4c-23,0-34.5-12.9-34.5-38.7V94.8c-0.1-3.1,1-6.1,3.2-8.2
		c2.4-2.1,5.5-3.2,8.6-3.1c3.2-0.2,6.4,0.9,8.8,3.1c2.2,2.2,3.4,5.2,3.3,8.2v47.3c0,6.7,1.3,11.6,4,14.7c2.7,3.2,6.9,4.8,12.6,4.8
		c6.7,0,12-2.2,16-6.6c4-4.4,6-10.2,6-17.5V94.8c-0.1-3.1,1-6.1,3.3-8.2c2.4-2.1,5.5-3.2,8.7-3.1C540.2,83.3,543.4,84.4,545.8,86.5z
		"/>
	<path class="st0" d="M708.7,92.2c5.4,6.1,8.1,15.9,8.1,29.4v47.1c0,3.7-1.1,6.5-3.3,8.5c-2.4,2.1-5.5,3.1-8.7,3
		c-3.1,0.1-6.2-1-8.5-3c-2.2-2-3.3-4.8-3.3-8.5v-47.1c0-7-1.2-12-3.7-15c-2.5-3-6.3-4.5-11.4-4.5c-6.3,0-11.2,2.1-14.9,6.4
		c-3.7,4.3-5.6,10.1-5.6,17.5v42.7c0,3.7-1.1,6.5-3.3,8.5c-2.4,2-5.4,3.1-8.5,3c-3.1,0.1-6.2-1-8.6-3c-2.3-2-3.5-4.8-3.5-8.5v-47.1
		c0-7-1.2-12-3.7-15c-2.5-3-6.3-4.5-11.4-4.5c-6.3,0-11.2,2.1-14.8,6.4c-3.6,4.3-5.5,10.1-5.5,17.5v42.7c0,3.7-1.2,6.5-3.5,8.5
		c-2.4,2-5.5,3.1-8.6,3c-3.1,0.1-6.2-1-8.5-3c-2.2-2-3.4-4.8-3.4-8.5V94.6c0-3.6,1.2-6.3,3.5-8.2c2.4-2,5.5-3,8.6-2.9
		c3-0.1,5.9,0.9,8.1,2.8c2.1,1.8,3.2,4.5,3.2,7.9v4.6c2.7-4.9,6.8-9,11.8-11.7c5.2-2.8,11.1-4.1,17-4c14,0,23.4,5.9,28.2,17.6
		c2.8-5.4,7.2-9.8,12.5-12.8c5.7-3.2,12.1-4.9,18.6-4.8C695.5,83.1,703.3,86.1,708.7,92.2L708.7,92.2z"/>
	<path class="st0" d="M810.9,92.8c6.3,6.4,9.5,16.2,9.5,29.4v46.7c0.2,3-0.9,6-3.1,8.1c-2,2-4.9,3-8.4,3c-3,0.1-5.9-1-8.1-3.1
		c-2.1-2.1-3.3-5-3.2-8v-4.3c-2.1,4.9-5.7,9-10.3,11.7c-4.9,2.9-10.5,4.3-16.2,4.2c-5.9,0.1-11.7-1.2-17-3.8
		c-4.9-2.4-9.1-6-12.1-10.5c-2.9-4.4-4.5-9.6-4.4-14.9c0-6.9,1.8-12.3,5.3-16.3c3.5-4,9.2-6.8,17.1-8.6c7.9-1.8,18.8-2.7,32.8-2.7
		h4.8v-4.4c0-6.2-1.3-10.8-4-13.7c-2.7-2.9-7-4.3-13-4.3c-3.8,0-7.7,0.6-11.4,1.7c-3.8,1.1-8.4,2.7-13.6,4.7
		c-3.3,1.7-5.7,2.5-7.3,2.5c-2.2,0.1-4.2-0.9-5.7-2.5c-1.5-1.8-2.3-4.1-2.2-6.5c0-2,0.5-4,1.6-5.6c1.4-1.9,3.3-3.4,5.5-4.5
		c5-2.6,10.4-4.6,16-5.7c6-1.4,12.1-2.1,18.3-2.1C794.9,83.1,804.5,86.3,810.9,92.8L810.9,92.8z M791.5,156.9c4-4.3,6-9.8,6-16.6v-4
		h-3.5c-6.7-0.1-13.3,0.3-19.9,1.1c-4.7,0.8-8.1,2.1-10.2,4c-2.1,2-3.2,4.9-3.1,7.8c-0.1,3.8,1.5,7.5,4.3,10.1
		c2.9,2.6,6.7,4,10.6,3.9C782.3,163.3,787.5,161.2,791.5,156.9L791.5,156.9z"/>
	<path class="st0" d="M924.2,92.7c5.5,6.4,8.2,16,8.2,28.9v47.1c0,3.6-1.1,6.4-3.2,8.4c-2.1,2-5,3.1-8.7,3.1s-6.6-1-8.8-3.1
		c-2.2-2.2-3.4-5.3-3.3-8.4V123c0-7.3-1.4-12.6-4.1-15.9c-2.7-3.3-7.1-5-12.9-5c-6.9,0-12.4,2.2-16.6,6.5
		c-4.2,4.3-6.2,10.1-6.2,17.4v42.7c0.2,3.1-1,6.2-3.2,8.4c-2.4,2.1-5.6,3.2-8.8,3.1c-3.7,0-6.6-1-8.7-3.1c-2.2-2.2-3.3-5.3-3.2-8.4
		V94.6c-0.1-3,1.1-5.9,3.3-8c2.4-2.1,5.6-3.2,8.8-3.1c3-0.1,5.9,1,8.2,3c2.1,2,3.3,4.8,3.2,7.8v5.2c3.1-5.1,7.5-9.3,12.8-12.1
		c5.6-2.9,11.9-4.3,18.2-4.2C910.4,83.1,918.7,86.3,924.2,92.7L924.2,92.7z"/>
	<path class="st0" d="M984.9,172.3c-9.7-5.6-17.5-14-22.3-24.1c-5.2-10.5-7.9-22.7-7.8-36.8c0-14,2.6-26.3,7.8-36.7
		c4.9-10.1,12.6-18.4,22.3-24c9.7-5.6,21.1-8.4,34.3-8.4s24.6,2.8,34.2,8.4c9.6,5.6,17.4,14,22.2,24c5.2,10.4,7.8,22.6,7.8,36.7
		s-2.6,26.3-7.8,36.8c-4.9,10.1-12.7,18.5-22.3,24.1c-9.6,5.6-21,8.4-34,8.4C1005.9,180.7,994.5,177.9,984.9,172.3L984.9,172.3z
		 M1048.1,148.2c7-8.5,10.4-20.8,10.4-36.8s-3.5-28.2-10.4-36.7c-7-8.5-16.6-12.7-29-12.7c-12.5,0-22.3,4.2-29.2,12.7
		c-7,8.5-10.4,20.7-10.5,36.7c0,16,3.5,28.2,10.4,36.8c7,8.5,16.7,12.8,29.2,12.8C1031.4,161,1041.1,156.7,1048.1,148.2z"/>
	<path class="st0" d="M1176.7,89.2c6.5,4.2,11.6,10.3,14.8,17.3c3.5,7.5,5.3,16,5.3,25.8c0,9.7-1.8,18.2-5.3,25.4
		c-6.4,14.2-20.7,23.2-36.3,22.8c-6.2,0.1-12.3-1.3-17.8-4.2c-5.1-2.6-9.3-6.7-12.1-11.7v39.1c0.1,3-1.1,5.9-3.3,7.9
		c-2.4,2-5.5,3-8.6,2.9c-3.2,0.1-6.3-1-8.7-3.1c-2.2-2-3.5-5-3.3-8V94.8c-0.1-3.1,1-6.1,3.2-8.2c2.3-2.1,5.4-3.2,8.5-3.1
		c3.2-0.1,6.3,1,8.6,3.1c2.2,2.2,3.4,5.2,3.3,8.2v4.8c2.8-5.2,7-9.4,12.2-12.2c5.6-2.9,11.8-4.4,18.1-4.3
		C1162.7,83,1170.2,85.1,1176.7,89.2L1176.7,89.2z M1166.4,154.2c4.2-5.2,6.3-12.5,6.3-21.9c0-9.7-2.1-17.2-6.3-22.6
		c-4.2-5.4-10.1-8-17.6-8c-7.7,0-13.6,2.6-17.7,7.8c-4.1,5.2-6.2,12.7-6.2,22.4c0,9.6,2.1,17,6.2,22.2s10.1,7.8,17.7,7.9
		C1156.3,162,1162.2,159.4,1166.4,154.2L1166.4,154.2z"/>
	<path class="st0" d="M1216.6,172.3c-4.1-2.4-6.1-5.9-6.1-10.3c-0.1-2.3,0.6-4.5,2.1-6.2c1.3-1.5,3.2-2.4,5.2-2.4c2.2,0,5.2,1,9,3.1
		c3.6,1.7,7.4,3.2,11.2,4.4c4.2,1.1,8.6,1.6,12.9,1.5c5.4,0,9.6-0.9,12.6-2.7c2.8-1.4,4.5-4.3,4.5-7.5c0.1-1.9-0.6-3.8-1.8-5.2
		c-1.2-1.3-3.4-2.5-6.5-3.5c-4.7-1.5-9.5-2.8-14.3-3.7c-11.4-2.3-19.5-5.5-24.4-9.8c-4.9-4.2-7.4-10-7.4-17.4c0-5.5,1.7-10.8,5-15.2
		c3.5-4.7,8.3-8.3,13.7-10.5c6.3-2.6,13-3.8,19.8-3.7c5.2,0,10.5,0.7,15.5,2c4.7,1.2,9.3,3.2,13.4,5.8c4.1,2.5,6.1,5.9,6.1,10.1
		c0.1,2.3-0.7,4.6-2.1,6.4c-1.2,1.6-3.1,2.6-5.2,2.6c-1.4,0-2.8-0.3-4.1-0.9c-1.7-0.8-3.4-1.6-5.1-2.6c-3.1-1.6-6.3-3.1-9.6-4.3
		c-3.2-1-6.6-1.5-10-1.4c-4.7,0-8.5,1-11.2,2.9c-2.7,1.7-4.2,4.7-4.1,7.8c-0.1,3.1,1.5,5.9,4.2,7.3c2.8,1.7,8.2,3.3,16.3,5
		c8.6,1.8,15.3,3.8,20.1,6.1c4.9,2.3,8.3,5.2,10.4,8.6c2.1,3.5,3.2,7.9,3.2,13.2c0,8.7-3.6,15.6-10.8,20.9
		c-7.2,5.2-16.8,7.9-28.8,7.9C1236.4,180.6,1225.2,177.8,1216.6,172.3L1216.6,172.3z"/>
	<g>
		<path class="st0" d="M149.6,143.6L153.9,20c0.2-5.8,5-10.3,10.8-10.1l0,0c5.8,0.2,10.3,5,10.1,10.8l-4.3,123.6
			c-0.2,5.8-5,10.3-10.8,10.1l0,0C153.9,154.1,149.4,149.3,149.6,143.6z"/>
		<path class="st0" d="M113.8,85.2L113.8,85.2c5.8-0.2,10.6,4.3,10.8,10.1l2.2,62c0.2,5.8-4.3,10.6-10.1,10.8l0,0
			c-5.8,0.2-10.6-4.3-10.8-10.1l-2.2-62C103.5,90.2,108,85.4,113.8,85.2z"/>
		<path class="st0" d="M71.7,96.2L71.7,96.2c5.7-0.5,10.8,3.7,11.3,9.5l5.4,61.8c0.5,5.7-3.7,10.8-9.5,11.3l0,0
			c-5.7,0.5-10.8-3.7-11.3-9.5l-5.4-61.8C61.7,101.8,65.9,96.7,71.7,96.2z"/>
		<path class="st0" d="M200.9,123.9c-5.7,0-10.3,4.6-10.3,10.3c0,0,0,0,0,0c0,1.4,0.3,19,0.2,20.4c-2,37-37.6,71.7-76.8,74.6
			c-38.8,0.6-68.6-21-75-70.4c0-0.2-7.4-92.7-7.4-92.7c-0.3-5.8-5.2-10.4-11-10.2c-5.8,0-10.6,4.7-10.6,10.5c0,0,7.2,94.1,7.2,94.9
			c6.6,58.9,43.9,89.5,98.1,88.6s94.6-47.7,96.5-95.4c0.1-1.6-0.2-19.2-0.2-20.8C211.4,128.1,206.6,123.6,200.9,123.9L200.9,123.9z"
			/>
	</g>
	<g>
		<rect x="318.1" y="205.6" class="st1" width="775" height="55.5"/>
		<path class="st0" d="M345.5,229.8v16.3c0,0.7-0.2,1.3-0.6,1.7c-0.4,0.4-1,0.7-1.7,0.7c-0.7,0-1.3-0.2-1.7-0.7
			c-0.4-0.4-0.7-1-0.7-1.7v-2.9c-0.8,1.7-1.9,3.1-3.5,4c-1.6,0.9-3.4,1.4-5.4,1.4c-1.9,0-3.6-0.4-5.2-1.1c-1.6-0.8-2.8-1.8-3.8-3.2
			c-0.9-1.4-1.4-2.9-1.4-4.5c0-2.2,0.6-3.9,1.7-5.1c1.1-1.2,3-2.1,5.5-2.6c2.6-0.5,6.1-0.8,10.7-0.8h1.3v-2c0-2.4-0.5-4.2-1.5-5.3
			c-1-1.1-2.6-1.7-4.8-1.7c-2.7,0-5.5,0.7-8.3,2.2c-1.1,0.7-1.8,1-2.3,1c-0.5,0-0.9-0.2-1.2-0.5c-0.3-0.4-0.5-0.8-0.5-1.4
			s0.2-1.1,0.5-1.5c0.3-0.4,0.9-0.8,1.6-1.3c1.4-0.8,3-1.4,4.8-1.9c1.8-0.5,3.5-0.7,5.3-0.7C341.9,218.2,345.5,222.1,345.5,229.8z
			 M338.5,242.3c1.5-1.6,2.3-3.7,2.3-6.3v-1.7h-1.1c-3.5,0-6.2,0.2-8,0.5c-1.8,0.3-3.1,0.8-3.9,1.5c-0.8,0.7-1.2,1.7-1.2,3.1
			c0,1.6,0.6,2.9,1.7,3.9c1.1,1,2.6,1.5,4.3,1.5C335,244.8,336.9,244,338.5,242.3z"/>
		<path class="st0" d="M375.5,247.3c-2.7-0.9-4.9-2.1-6.6-3.6c-0.6-0.6-0.9-1.3-0.9-2.1c0-0.6,0.2-1.1,0.5-1.5
			c0.3-0.4,0.7-0.6,1.1-0.6c0.5,0,1.1,0.2,1.7,0.7c3.7,2.9,8,4.3,12.7,4.3c3.4,0,6.1-0.7,7.9-2c1.8-1.3,2.8-3.2,2.8-5.6
			c0-1.4-0.4-2.5-1.3-3.4c-0.9-0.9-2-1.5-3.5-2.1c-1.4-0.5-3.4-1.1-5.8-1.6c-3.3-0.8-6-1.6-8.1-2.4s-3.8-2-5.1-3.6
			c-1.3-1.6-1.9-3.6-1.9-6.1c0-2.4,0.6-4.5,1.9-6.4c1.3-1.9,3.1-3.3,5.5-4.3c2.3-1,5-1.5,8-1.5c2.8,0,5.4,0.4,7.8,1.3
			c2.4,0.9,4.4,2.1,6.1,3.7c0.6,0.6,1,1.3,1,2.1c0,0.6-0.2,1-0.5,1.5c-0.3,0.4-0.7,0.6-1.1,0.6c-0.4,0-1-0.2-1.7-0.7
			c-2-1.6-3.8-2.7-5.5-3.4c-1.7-0.6-3.7-1-6.1-1c-3.3,0-5.9,0.7-7.7,2.1c-1.8,1.4-2.8,3.3-2.8,5.8c0,2.1,0.8,3.7,2.4,4.8
			c1.6,1.1,4.1,2,7.5,2.8c3.6,0.9,6.5,1.7,8.6,2.4c2.1,0.7,3.8,1.9,5.2,3.3c1.4,1.5,2.1,3.5,2.1,5.9c0,2.4-0.7,4.4-1.9,6.2
			c-1.3,1.8-3.1,3.2-5.5,4.2c-2.4,1-5.1,1.5-8.1,1.5C381.1,248.7,378.2,248.2,375.5,247.3z"/>
		<path class="st0" d="M422.3,246.6c0,0.7-0.3,1.2-0.8,1.5c-0.5,0.3-1.3,0.5-2.2,0.4l-1.6-0.1c-3.2-0.2-5.6-1.2-7.1-2.9
			c-1.5-1.7-2.3-4.2-2.3-7.6v-15.1h-4c-0.7,0-1.2-0.2-1.6-0.5c-0.4-0.3-0.6-0.8-0.6-1.4c0-0.6,0.2-1.1,0.6-1.4
			c0.4-0.4,0.9-0.5,1.6-0.5h4v-6.8c0-0.8,0.2-1.3,0.7-1.8c0.4-0.4,1-0.6,1.8-0.6c0.7,0,1.3,0.2,1.7,0.6c0.4,0.4,0.7,1,0.7,1.8v6.8
			h6.7c0.6,0,1.1,0.2,1.5,0.5c0.4,0.4,0.6,0.8,0.6,1.4c0,0.6-0.2,1-0.6,1.4c-0.4,0.3-0.9,0.5-1.5,0.5h-6.7v15.3
			c0,2.2,0.5,3.8,1.4,4.8s2.2,1.5,4,1.6l1.6,0.1C421.6,244.8,422.3,245.4,422.3,246.6z"/>
		<path class="st0" d="M450,229.8v16.3c0,0.7-0.2,1.3-0.6,1.7c-0.4,0.4-1,0.7-1.7,0.7s-1.3-0.2-1.7-0.7c-0.4-0.4-0.7-1-0.7-1.7v-2.9
			c-0.8,1.7-1.9,3.1-3.5,4c-1.6,0.9-3.4,1.4-5.4,1.4c-1.9,0-3.6-0.4-5.2-1.1c-1.6-0.8-2.8-1.8-3.8-3.2c-0.9-1.4-1.4-2.9-1.4-4.5
			c0-2.2,0.6-3.9,1.7-5.1c1.1-1.2,3-2.1,5.5-2.6c2.6-0.5,6.1-0.8,10.7-0.8h1.3v-2c0-2.4-0.5-4.2-1.5-5.3c-1-1.1-2.6-1.7-4.8-1.7
			c-2.7,0-5.5,0.7-8.3,2.2c-1.1,0.7-1.8,1-2.3,1c-0.5,0-0.9-0.2-1.2-0.5c-0.3-0.4-0.5-0.8-0.5-1.4s0.2-1.1,0.5-1.5
			c0.3-0.4,0.9-0.8,1.6-1.3c1.4-0.8,3-1.4,4.8-1.9c1.8-0.5,3.5-0.7,5.3-0.7C446.4,218.2,450,222.1,450,229.8z M443,242.3
			c1.5-1.6,2.3-3.7,2.3-6.3v-1.7h-1.1c-3.5,0-6.2,0.2-8,0.5c-1.8,0.3-3.1,0.8-3.9,1.5c-0.8,0.7-1.2,1.7-1.2,3.1
			c0,1.6,0.6,2.9,1.7,3.9c1.1,1,2.6,1.5,4.3,1.5C439.5,244.8,441.4,244,443,242.3z"/>
		<path class="st0" d="M463.7,246.7c-2.1-1.2-3.7-3-4.9-5.3c-1.1-2.3-1.7-4.9-1.7-7.9s0.6-5.7,1.8-8c1.2-2.3,2.8-4.1,5-5.4
			c2.1-1.3,4.6-1.9,7.3-1.9c1.5,0,3,0.2,4.5,0.6c1.5,0.4,2.8,1,3.9,1.8c0.7,0.5,1.2,1,1.5,1.4c0.3,0.5,0.5,1,0.5,1.5
			c0,0.6-0.2,1-0.5,1.4c-0.3,0.4-0.7,0.5-1.2,0.5c-0.3,0-0.6-0.1-0.9-0.2c-0.3-0.2-0.6-0.3-0.8-0.5c-0.2-0.2-0.4-0.3-0.5-0.3
			c-1-0.7-2-1.2-3-1.6c-0.9-0.4-2.1-0.6-3.5-0.6c-2.9,0-5.2,1-6.8,3c-1.6,2-2.4,4.7-2.4,8.2s0.8,6.2,2.4,8.2
			c1.6,1.9,3.9,2.9,6.8,2.9c1.4,0,2.5-0.2,3.5-0.6c1-0.4,2-0.9,3-1.6c0.4-0.3,0.9-0.5,1.3-0.7c0.4-0.2,0.7-0.3,1-0.3
			c0.4,0,0.8,0.2,1.1,0.5c0.3,0.4,0.5,0.8,0.5,1.4c0,0.5-0.1,1-0.4,1.4c-0.3,0.4-0.8,0.9-1.6,1.4c-1.1,0.8-2.5,1.4-4,1.8
			c-1.6,0.5-3.2,0.7-4.8,0.7C468.3,248.6,465.8,248,463.7,246.7z"/>
		<path class="st0" d="M512,246.3c0,0.6-0.2,1.1-0.6,1.6c-0.4,0.4-0.9,0.7-1.5,0.7c-0.5,0-1.1-0.2-1.6-0.7l-15.7-13.5v11.8
			c0,0.8-0.2,1.3-0.7,1.8c-0.5,0.4-1,0.6-1.7,0.6c-0.7,0-1.3-0.2-1.8-0.6c-0.5-0.4-0.7-1-0.7-1.8V208c0-0.8,0.2-1.3,0.7-1.8
			c0.5-0.4,1-0.6,1.8-0.6c0.7,0,1.2,0.2,1.7,0.6c0.5,0.4,0.7,1,0.7,1.8v24.4l14.3-13.1c0.5-0.5,1-0.7,1.6-0.7c0.6,0,1.1,0.2,1.6,0.7
			c0.4,0.4,0.7,1,0.7,1.6c0,0.7-0.3,1.3-0.8,1.8L498,233.1l13,11.3C511.6,244.9,512,245.6,512,246.3z"/>
		<path class="st0" d="M519,247.8c-0.4-0.5-0.7-1.1-0.7-1.8v-37.7c0-0.7,0.2-1.3,0.7-1.7c0.5-0.4,1.1-0.7,1.8-0.7h14.2
			c4.4,0,7.9,1.1,10.3,3.2c2.5,2.2,3.7,5.2,3.7,9.2s-1.2,7-3.7,9.2c-2.5,2.2-5.9,3.3-10.3,3.3h-11.8V246c0,0.8-0.2,1.4-0.7,1.8
			c-0.4,0.5-1,0.7-1.8,0.7S519.5,248.3,519,247.8z M534.6,226.8c6.4,0,9.7-2.8,9.7-8.5c0-5.6-3.2-8.3-9.7-8.3h-11.3v16.8H534.6z"/>
		<path class="st0" d="M578.6,229.8v16.3c0,0.7-0.2,1.3-0.6,1.7c-0.4,0.4-1,0.7-1.7,0.7s-1.3-0.2-1.7-0.7c-0.4-0.4-0.7-1-0.7-1.7
			v-2.9c-0.8,1.7-1.9,3.1-3.5,4c-1.6,0.9-3.4,1.4-5.4,1.4c-1.9,0-3.6-0.4-5.2-1.1c-1.6-0.8-2.8-1.8-3.8-3.2
			c-0.9-1.4-1.4-2.9-1.4-4.5c0-2.2,0.6-3.9,1.7-5.1c1.1-1.2,3-2.1,5.5-2.6s6.1-0.8,10.7-0.8h1.3v-2c0-2.4-0.5-4.2-1.5-5.3
			c-1-1.1-2.6-1.7-4.8-1.7c-2.7,0-5.5,0.7-8.3,2.2c-1.1,0.7-1.8,1-2.3,1c-0.5,0-0.9-0.2-1.2-0.5c-0.3-0.4-0.5-0.8-0.5-1.4
			s0.2-1.1,0.5-1.5s0.9-0.8,1.7-1.3c1.4-0.8,3-1.4,4.8-1.9c1.8-0.5,3.5-0.7,5.3-0.7C575,218.2,578.6,222.1,578.6,229.8z
			 M571.6,242.3c1.5-1.6,2.3-3.7,2.3-6.3v-1.7h-1.1c-3.5,0-6.2,0.2-8,0.5s-3.1,0.8-3.9,1.5c-0.8,0.7-1.2,1.7-1.2,3.1
			c0,1.6,0.6,2.9,1.7,3.9c1.1,1,2.6,1.5,4.3,1.5C568.1,244.8,570,244,571.6,242.3z"/>
		<path class="st0" d="M603.1,246.6c0,0.7-0.2,1.2-0.8,1.5c-0.5,0.3-1.2,0.5-2.2,0.4l-1.6-0.1c-3.2-0.2-5.6-1.2-7.1-2.9
			c-1.5-1.7-2.3-4.2-2.3-7.6v-15.1h-4c-0.7,0-1.2-0.2-1.6-0.5c-0.4-0.3-0.6-0.8-0.6-1.4c0-0.6,0.2-1.1,0.6-1.4
			c0.4-0.4,0.9-0.5,1.6-0.5h4v-6.8c0-0.8,0.2-1.3,0.7-1.8c0.4-0.4,1-0.6,1.8-0.6c0.7,0,1.3,0.2,1.7,0.6c0.4,0.4,0.7,1,0.7,1.8v6.8
			h6.7c0.6,0,1.1,0.2,1.5,0.5c0.4,0.4,0.6,0.8,0.6,1.4c0,0.6-0.2,1-0.6,1.4c-0.4,0.3-0.9,0.5-1.5,0.5H594v15.3
			c0,2.2,0.4,3.8,1.3,4.8s2.2,1.5,4,1.6l1.6,0.1C602.4,244.8,603.1,245.4,603.1,246.6z"/>
		<path class="st0" d="M630.5,221.2c1.8,1.9,2.6,4.8,2.6,8.7v16.3c0,0.8-0.2,1.3-0.7,1.8c-0.4,0.4-1,0.6-1.7,0.6
			c-0.8,0-1.4-0.2-1.8-0.6c-0.4-0.4-0.7-1-0.7-1.8v-16.1c0-2.6-0.5-4.5-1.6-5.8c-1.1-1.2-2.8-1.9-5.1-1.9c-2.7,0-4.8,0.8-6.4,2.5
			c-1.6,1.6-2.4,3.9-2.4,6.7v14.6c0,0.8-0.2,1.3-0.6,1.8c-0.4,0.4-1,0.6-1.8,0.6c-0.8,0-1.4-0.2-1.8-0.6c-0.4-0.4-0.7-1-0.7-1.8
			v-38.2c0-0.7,0.2-1.2,0.7-1.7c0.5-0.4,1-0.7,1.8-0.7c0.8,0,1.3,0.2,1.8,0.6c0.4,0.4,0.6,1,0.6,1.7v15.7c1-1.8,2.3-3.1,4-4
			s3.7-1.4,5.9-1.4C626.1,218.2,628.7,219.2,630.5,221.2z"/>
		<path class="st0" d="M699.7,229.8v16.3c0,0.8-0.2,1.3-0.7,1.8c-0.4,0.4-1,0.6-1.7,0.6s-1.3-0.2-1.8-0.6c-0.5-0.4-0.7-1-0.7-1.8
			v-16.1c0-2.7-0.5-4.6-1.4-5.8c-1-1.2-2.5-1.8-4.5-1.8c-2.4,0-4.4,0.8-5.8,2.5c-1.4,1.6-2.1,3.9-2.1,6.7v14.6
			c0,0.8-0.2,1.3-0.7,1.8s-1,0.6-1.8,0.6s-1.3-0.2-1.7-0.6c-0.4-0.4-0.7-1-0.7-1.8v-16.1c0-2.7-0.5-4.6-1.4-5.8
			c-1-1.2-2.5-1.8-4.6-1.8c-2.4,0-4.3,0.8-5.7,2.5c-1.4,1.6-2.1,3.9-2.1,6.7v14.6c0,0.8-0.2,1.3-0.7,1.8c-0.4,0.4-1,0.6-1.7,0.6
			s-1.3-0.2-1.8-0.6c-0.5-0.4-0.7-1-0.7-1.8v-25.3c0-0.7,0.2-1.3,0.7-1.7c0.5-0.4,1-0.7,1.8-0.7c0.7,0,1.2,0.2,1.7,0.6
			c0.4,0.4,0.7,1,0.7,1.7v2.9c0.9-1.7,2.1-3,3.7-4s3.4-1.4,5.4-1.4c4.6,0,7.5,1.9,8.9,5.8c0.8-1.8,2.1-3.2,3.8-4.2s3.7-1.6,5.9-1.6
			C696.5,218.2,699.7,222.1,699.7,229.8z"/>
		<path class="st0" d="M713.4,246.7c-2.1-1.2-3.7-3-4.9-5.3c-1.1-2.3-1.7-5-1.7-8s0.6-5.7,1.7-8c1.1-2.3,2.8-4.1,4.9-5.3
			c2.1-1.2,4.5-1.9,7.3-1.9s5.2,0.6,7.3,1.9c2.1,1.2,3.8,3,4.9,5.3s1.7,5,1.7,8s-0.6,5.7-1.7,8c-1.1,2.3-2.8,4.1-4.9,5.3
			c-2.1,1.2-4.6,1.9-7.3,1.9S715.5,248,713.4,246.7z M727.3,241.7c1.5-1.9,2.3-4.7,2.3-8.3c0-3.6-0.8-6.3-2.3-8.2
			c-1.6-1.9-3.8-2.9-6.6-2.9c-2.8,0-5,1-6.6,2.9c-1.6,1.9-2.3,4.7-2.3,8.2c0,3.6,0.8,6.4,2.3,8.3c1.5,1.9,3.8,2.9,6.6,2.9
			S725.8,243.6,727.3,241.7z"/>
		<path class="st0" d="M764.7,218.4c0.6,0,1.1,0.2,1.6,0.6c0.5,0.4,0.7,0.9,0.7,1.5c0,0.4-0.1,0.7-0.2,1l-11.7,25.2
			c-0.2,0.5-0.6,0.9-1.1,1.2c-0.5,0.3-1,0.4-1.6,0.4c-0.5,0-1-0.1-1.5-0.4c-0.5-0.3-0.9-0.7-1.1-1.2l-11.6-25.2
			c-0.2-0.3-0.2-0.6-0.2-0.9c0-0.6,0.3-1.1,0.8-1.6c0.5-0.4,1.1-0.7,1.8-0.7c0.4,0,0.8,0.1,1.2,0.4c0.4,0.2,0.7,0.6,0.9,1l10,22.5
			l10-22.4C763,218.9,763.7,218.4,764.7,218.4z"/>
		<path class="st0" d="M795.8,241.9c0.3,0.4,0.5,0.8,0.5,1.4c0,1-0.7,1.9-2.1,2.8c-1.4,0.8-3,1.5-4.6,1.9c-1.6,0.4-3.2,0.6-4.7,0.6
			c-4.5,0-8.1-1.3-10.7-4c-2.6-2.7-3.9-6.4-3.9-11.1c0-3,0.6-5.6,1.7-8c1.2-2.3,2.8-4.1,4.9-5.4c2.1-1.3,4.5-1.9,7.2-1.9
			c3.8,0,6.8,1.2,9.1,3.7c2.2,2.5,3.4,5.8,3.4,10.1c0,0.8-0.2,1.4-0.5,1.7c-0.3,0.4-0.8,0.5-1.6,0.5h-19.3
			c0.4,6.9,3.6,10.3,9.8,10.3c1.6,0,2.9-0.2,4-0.6c1.1-0.4,2.3-1,3.6-1.7c1-0.6,1.7-0.9,2.1-0.9
			C795.1,241.4,795.4,241.6,795.8,241.9z M778,224.4c-1.5,1.6-2.5,3.9-2.7,6.8h17c-0.1-3-0.8-5.2-2.2-6.8c-1.4-1.6-3.4-2.4-5.9-2.4
			C781.6,222,779.5,222.8,778,224.4z"/>
		<path class="st0" d="M845.9,229.8v16.3c0,0.8-0.2,1.3-0.7,1.8c-0.4,0.4-1,0.6-1.7,0.6s-1.3-0.2-1.8-0.6c-0.5-0.4-0.7-1-0.7-1.8
			v-16.1c0-2.7-0.5-4.6-1.4-5.8c-1-1.2-2.5-1.8-4.5-1.8c-2.4,0-4.4,0.8-5.8,2.5c-1.4,1.6-2.1,3.9-2.1,6.7v14.6
			c0,0.8-0.2,1.3-0.7,1.8s-1,0.6-1.8,0.6s-1.3-0.2-1.7-0.6c-0.4-0.4-0.7-1-0.7-1.8v-16.1c0-2.7-0.5-4.6-1.4-5.8
			c-1-1.2-2.5-1.8-4.6-1.8c-2.4,0-4.3,0.8-5.7,2.5c-1.4,1.6-2.1,3.9-2.1,6.7v14.6c0,0.8-0.2,1.3-0.7,1.8c-0.4,0.4-1,0.6-1.7,0.6
			s-1.3-0.2-1.8-0.6c-0.5-0.4-0.7-1-0.7-1.8v-25.3c0-0.7,0.2-1.3,0.7-1.7c0.5-0.4,1-0.7,1.8-0.7c0.7,0,1.2,0.2,1.7,0.6
			c0.4,0.4,0.7,1,0.7,1.7v2.9c0.9-1.7,2.1-3,3.7-4s3.4-1.4,5.4-1.4c4.6,0,7.5,1.9,8.9,5.8c0.8-1.8,2.1-3.2,3.8-4.2s3.7-1.6,5.9-1.6
			C842.6,218.2,845.9,222.1,845.9,229.8z"/>
		<path class="st0" d="M878.5,241.9c0.3,0.4,0.5,0.8,0.5,1.4c0,1-0.7,1.9-2.1,2.8c-1.4,0.8-3,1.5-4.6,1.9c-1.6,0.4-3.2,0.6-4.7,0.6
			c-4.5,0-8.1-1.3-10.7-4c-2.6-2.7-3.9-6.4-3.9-11.1c0-3,0.6-5.6,1.7-8c1.2-2.3,2.8-4.1,4.9-5.4c2.1-1.3,4.5-1.9,7.2-1.9
			c3.8,0,6.8,1.2,9.1,3.7c2.2,2.5,3.4,5.8,3.4,10.1c0,0.8-0.2,1.4-0.5,1.7c-0.3,0.4-0.8,0.5-1.6,0.5h-19.3
			c0.4,6.9,3.6,10.3,9.8,10.3c1.6,0,2.9-0.2,4-0.6c1.1-0.4,2.3-1,3.6-1.7c1-0.6,1.7-0.9,2.1-0.9
			C877.8,241.4,878.2,241.6,878.5,241.9z M860.7,224.4c-1.5,1.6-2.5,3.9-2.7,6.8h17c-0.1-3-0.8-5.2-2.2-6.8
			c-1.4-1.6-3.4-2.4-5.9-2.4C864.3,222,862.2,222.8,860.7,224.4z"/>
		<path class="st0" d="M911.5,229.8v16.3c0,0.8-0.2,1.3-0.6,1.8s-1,0.6-1.8,0.6s-1.4-0.2-1.8-0.6c-0.4-0.4-0.7-1-0.7-1.8v-16
			c0-2.7-0.5-4.7-1.6-5.9c-1.1-1.2-2.8-1.9-5.1-1.9c-2.7,0-4.8,0.8-6.4,2.5c-1.6,1.6-2.4,3.9-2.4,6.7v14.6c0,0.8-0.2,1.3-0.6,1.8
			c-0.4,0.4-1,0.6-1.8,0.6c-0.8,0-1.4-0.2-1.8-0.6c-0.4-0.4-0.7-1-0.7-1.8v-25.3c0-0.7,0.2-1.3,0.7-1.7c0.4-0.4,1-0.7,1.8-0.7
			c0.7,0,1.3,0.2,1.7,0.7c0.4,0.4,0.6,1,0.6,1.7v3.1c1-1.8,2.3-3.2,4-4.1c1.7-0.9,3.7-1.4,5.9-1.4
			C908,218.2,911.5,222.1,911.5,229.8z"/>
		<path class="st0" d="M936,246.6c0,0.7-0.2,1.2-0.8,1.5c-0.5,0.3-1.2,0.5-2.2,0.4l-1.6-0.1c-3.2-0.2-5.6-1.2-7.1-2.9
			c-1.5-1.7-2.3-4.2-2.3-7.6v-15.1h-4c-0.7,0-1.2-0.2-1.6-0.5c-0.4-0.3-0.6-0.8-0.6-1.4c0-0.6,0.2-1.1,0.6-1.4
			c0.4-0.4,0.9-0.5,1.6-0.5h4v-6.8c0-0.8,0.2-1.3,0.7-1.8c0.4-0.4,1-0.6,1.8-0.6c0.7,0,1.3,0.2,1.7,0.6c0.4,0.4,0.7,1,0.7,1.8v6.8
			h6.7c0.6,0,1.1,0.2,1.5,0.5c0.4,0.4,0.6,0.8,0.6,1.4c0,0.6-0.2,1-0.6,1.4c-0.4,0.3-0.9,0.5-1.5,0.5h-6.7v15.3
			c0,2.2,0.4,3.8,1.3,4.8s2.2,1.5,4,1.6l1.6,0.1C935.3,244.8,936,245.4,936,246.6z"/>
	</g>
</g>
</svg>
