<svg xmlns="http://www.w3.org/2000/svg" width="1000" height="230" viewBox="0 0 1000 230"><title>humanops-logo-wordmark</title><path d="M132.23,44.49a12.22,12.22,0,0,1,3.25,8.9V165.76a12.37,12.37,0,0,1-3.35,9,12.86,12.86,0,0,1-17.53,0,12.52,12.52,0,0,1-3.26-9V118.48H42.17v47.28a12.34,12.34,0,0,1-3.36,9,11.84,11.84,0,0,1-8.91,3.45,11.6,11.6,0,0,1-8.71-3.45,12.34,12.34,0,0,1-3.36-9V53.39a12.22,12.22,0,0,1,3.26-8.9,11.73,11.73,0,0,1,8.81-3.35A11.54,11.54,0,0,1,42.17,53.39V98.57h69.17V53.39a12.18,12.18,0,0,1,3.26-8.9,13.27,13.27,0,0,1,17.63,0Z" style="fill:#fff"/><path d="M245.28,84.59a10.79,10.79,0,0,1,3.25,8.24V167.1a10.35,10.35,0,0,1-3.35,8,12.43,12.43,0,0,1-8.72,3.07c-3.44,0-9.54-5.94-11.58-7.85s0,0-9.58,4.78-12.63,3.45-18.89,3.45q-34.49,0-34.48-38.67V92.83a10.79,10.79,0,0,1,3.25-8.24,12.14,12.14,0,0,1,8.63-3.06,12.39,12.39,0,0,1,8.81,3.06,10.79,10.79,0,0,1,3.26,8.24v47.28q0,10,4,14.74t12.65,4.79q10,0,16-6.61t6-17.51V92.83a10.79,10.79,0,0,1,3.26-8.24,12.13,12.13,0,0,1,8.62-3.06A12.42,12.42,0,0,1,245.28,84.59Z" style="fill:#fff"/><path d="M408.25,90.24q8.14,9.11,8.14,29.39v47.09q0,5.55-3.35,8.52a12.73,12.73,0,0,1-8.72,3,12.45,12.45,0,0,1-8.53-3q-3.35-3-3.35-8.52V119.63q0-10.53-3.74-15t-11.4-4.5q-9.39,0-14.94,6.41T356.8,124v42.69q0,5.55-3.35,8.52a12.45,12.45,0,0,1-8.53,3,12.79,12.79,0,0,1-8.62-3q-3.45-3-3.45-8.52V119.63q0-10.53-3.74-15t-11.4-4.5q-9.39,0-14.85,6.41T297.4,124v42.69q0,5.55-3.45,8.52a12.81,12.81,0,0,1-8.62,3,12.43,12.43,0,0,1-8.53-3q-3.36-3-3.36-8.52V92.64c0-3.58,1.16-6.32,3.46-8.24a13,13,0,0,1,8.62-2.87,11.89,11.89,0,0,1,8.14,2.78c2.11,1.85,3.17,4.49,3.17,7.94v4.6a29.92,29.92,0,0,1,11.78-11.68,34.85,34.85,0,0,1,17-4q21.07,0,28.17,17.61a31.66,31.66,0,0,1,12.45-12.83,36.41,36.41,0,0,1,18.58-4.78Q400.1,81.15,408.25,90.24Z" style="fill:#fff"/><path d="M510.37,90.82q9.5,9.66,9.49,29.38v46.71a10.83,10.83,0,0,1-3.06,8.14c-2,2-4.87,3-8.44,3a11.22,11.22,0,0,1-8.14-3.06,10.67,10.67,0,0,1-3.16-8V162.7a25,25,0,0,1-10.26,11.68,30.81,30.81,0,0,1-16.19,4.21,37.64,37.64,0,0,1-17.05-3.83,30.23,30.23,0,0,1-12.07-10.53,26.57,26.57,0,0,1-4.41-14.93q0-10.34,5.27-16.27t17.15-8.62q11.88-2.67,32.77-2.68h4.79v-4.4q0-9.37-4-13.69t-13-4.31A41.55,41.55,0,0,0,468.7,101q-5.76,1.64-13.61,4.69c-3.32,1.66-5.74,2.49-7.28,2.49a7.2,7.2,0,0,1-5.65-2.49,9.44,9.44,0,0,1-2.2-6.51,9.75,9.75,0,0,1,1.63-5.64A15.31,15.31,0,0,1,447,89a62.74,62.74,0,0,1,16-5.74,82.34,82.34,0,0,1,18.3-2.11Q500.89,81.15,510.37,90.82ZM491,154.94q6-6.41,6-16.55v-4h-3.45a131.67,131.67,0,0,0-19.93,1.15q-7.1,1.14-10.15,4a10.18,10.18,0,0,0-3.07,7.84,13,13,0,0,0,4.31,10.06,15.23,15.23,0,0,0,10.63,3.92Q485,161.36,491,154.94Z" style="fill:#fff"/><path d="M623.71,90.72q8.25,9.57,8.24,28.91v47.09q0,5.35-3.16,8.42c-2.11,2-5,3.07-8.72,3.07s-6.64-1-8.81-3.07a11,11,0,0,1-3.26-8.42V121q0-10.92-4.12-15.89t-12.93-5q-10.35,0-16.58,6.51T568.14,124v42.69a11,11,0,0,1-3.25,8.42,12.38,12.38,0,0,1-8.82,3.07c-3.7,0-6.61-1-8.72-3.07a11.2,11.2,0,0,1-3.16-8.42V92.64a10.56,10.56,0,0,1,3.26-8,12.39,12.39,0,0,1,8.81-3.06,11.42,11.42,0,0,1,8.15,3,10.17,10.17,0,0,1,3.16,7.75v5.17a32.37,32.37,0,0,1,12.84-12.06,38.73,38.73,0,0,1,18.2-4.21Q615.47,81.15,623.71,90.72Z" style="fill:#fff"/><path d="M684.36,170.35A56.3,56.3,0,0,1,662,146.23q-7.86-15.69-7.85-36.75t7.76-36.66a55.7,55.7,0,0,1,22.32-24q14.55-8.41,34.3-8.42t34.2,8.42a55.86,55.86,0,0,1,22.23,24q7.75,15.6,7.76,36.66t-7.85,36.75a56.36,56.36,0,0,1-22.33,24.12q-14.46,8.43-34,8.43Q698.82,178.78,684.36,170.35Zm63.23-24.12Q758,133.42,758,109.48T747.59,72.82q-10.46-12.72-29-12.73-18.78,0-29.22,12.73T678.9,109.48q0,23.94,10.44,36.75t29.22,12.83Q737.15,159.06,747.59,146.23Z" style="fill:#fff"/><path d="M876.16,87.28a40.56,40.56,0,0,1,14.75,17.32q5.28,11.19,5.27,25.75t-5.27,25.45a38.67,38.67,0,0,1-36.31,22.79,37.22,37.22,0,0,1-17.82-4.21,29.55,29.55,0,0,1-12.07-11.68v39.05a9.93,9.93,0,0,1-3.26,7.85,12.57,12.57,0,0,1-8.62,2.87,12.44,12.44,0,0,1-8.72-3.06,10.37,10.37,0,0,1-3.35-8V92.83a11,11,0,0,1,3.16-8.24,11.79,11.79,0,0,1,8.53-3.06,12.13,12.13,0,0,1,8.62,3.06,10.79,10.79,0,0,1,3.26,8.24v4.78a29.36,29.36,0,0,1,12.16-12.15,37.32,37.32,0,0,1,18.11-4.31A38.84,38.84,0,0,1,876.16,87.28Zm-10.25,65q6.32-7.76,6.32-21.92,0-14.55-6.32-22.59t-17.63-8q-11.5,0-17.72,7.85T824.33,130q0,14.37,6.23,22.21T848.28,160Q859.58,160,865.91,152.27Z" style="fill:#fff"/><path d="M916.11,170.35Q910,166.72,910,160a9,9,0,0,1,2.11-6.22,6.62,6.62,0,0,1,5.17-2.4q3.25,0,9,3.07a84.12,84.12,0,0,0,11.2,4.4,45.79,45.79,0,0,0,12.94,1.53q8.05,0,12.55-2.68a8.31,8.31,0,0,0,4.51-7.46,7.2,7.2,0,0,0-1.82-5.17q-1.83-1.92-6.52-3.54a137,137,0,0,0-14.28-3.74q-17.05-3.44-24.43-9.76t-7.37-17.42a25.14,25.14,0,0,1,5-15.22,32.3,32.3,0,0,1,13.7-10.53,49.91,49.91,0,0,1,19.83-3.73,59.45,59.45,0,0,1,15.52,2A47,47,0,0,1,980.49,89q6.13,3.82,6.14,10.14a9.82,9.82,0,0,1-2.11,6.41,6.44,6.44,0,0,1-5.18,2.59,10.41,10.41,0,0,1-4.11-.86,55.05,55.05,0,0,1-5.08-2.59,80.3,80.3,0,0,0-9.58-4.3,29.86,29.86,0,0,0-10-1.44q-7.08,0-11.21,2.88a9,9,0,0,0-4.12,7.84,8,8,0,0,0,4.22,7.28q4.21,2.49,16.29,5,12.83,2.67,20.12,6.12t10.44,8.61q3.17,5.18,3.16,13.21,0,13-10.83,20.87t-28.84,7.85Q929,178.59,916.11,170.35Z" style="fill:#fff"/></svg>