<?xml version="1.0" encoding="utf-8"?>
<!-- Generator: Adobe Illustrator 22.1.0, SVG Export Plug-In . SVG Version: 6.00 Build 0)  -->
<svg version="1.1" id="Layer_1" xmlns:sketch="http://www.bohemiancoding.com/sketch/ns"
	 xmlns="http://www.w3.org/2000/svg" xmlns:xlink="http://www.w3.org/1999/xlink" x="0px" y="0px" viewBox="0 0 100 100"
	 style="enable-background:new 0 0 100 100;" xml:space="preserve">
<style type="text/css">
	.st0{filter:url(#Adobe_OpacityMaskFilter);}
	.st1{fill:#FFFFFF;}
	.st2{mask:url(#mask-2_1_);fill:#F80046;}
</style>
<title>sk_badge_flat</title>
<desc>Created with Sketch.</desc>
<g id="Page-1" sketch:type="MSPage">
	<g id="sk_badge_flat" sketch:type="MSLayerGroup">
		<g id="Clip-2">
		</g>
		<defs>
			<filter id="Adobe_OpacityMaskFilter" filterUnits="userSpaceOnUse" x="0.7" y="1" width="98.3" height="98.3">
				<feColorMatrix  type="matrix" values="1 0 0 0 0  0 1 0 0 0  0 0 1 0 0  0 0 0 1 0"/>
			</filter>
		</defs>
		<mask maskUnits="userSpaceOnUse" x="0.7" y="1" width="98.3" height="98.3" id="mask-2_1_">
			<g class="st0">
				<path id="path-1_1_" class="st1" d="M0.7,1H99v98.3H0.7V1z"/>
			</g>
		</mask>
		<path id="Fill-1" sketch:type="MSShapeGroup" class="st2" d="M27.5,77.9c-7.6,0-13.8-1.4-18.8-6.6l7.8-7.8
			c2.6,2.6,7.1,3.5,11.1,3.5c4.8,0,7.1-1.6,7.1-4.5c0-1.2-0.3-2.2-1-2.9c-0.6-0.6-1.7-1.1-3.3-1.3l-6-0.8c-4.4-0.6-7.7-2.1-10-4.4
			c-2.3-2.4-3.4-5.7-3.4-10c0-9.1,6.8-15.7,18.1-15.7c7.1,0,12.5,1.7,16.7,5.9L38.3,41c-3.1-3.1-7.3-2.9-9.4-2.9c-4.3,0-6,2.4-6,4.6
			c0,0.6,0.2,1.5,1,2.3c0.6,0.6,1.7,1.3,3.4,1.5l6,0.8c4.5,0.6,7.7,2,9.8,4.1c2.6,2.6,3.7,6.3,3.7,10.9C46.7,72.4,38,77.9,27.5,77.9
			L27.5,77.9z M85.9,11.8c-6.7-5-14.1-8.4-23.4-9.9v44.5l13.4-18.6h14.6L73.6,51.3c0,0,3.9,6.2,6.2,9.9c2.4,3.7,4.6,4.7,8.1,4.7
			c1,0,1,0,2.3,0v11.5l-3.6,0c-7.4,0-11.9-1.4-15.2-6.5c-2.1-3.3-8.9-14-8.9-14v20.5H50.3V1c-0.2,0-0.3,0-0.5,0
			C34.1,1,23.2,4.8,13.8,11.8C0.2,22,0.7,35.6,0.7,50.1c0,14.5-0.5,28.1,13.1,38.3c9.4,7.1,20.3,10.9,36.1,10.9
			c15.8,0,26.7-3.8,36.1-10.9C99.5,78.2,99,64.6,99,50.1C99,35.6,99.5,22,85.9,11.8L85.9,11.8z"/>
	</g>
</g>
</svg>
