<?xml version="1.0" encoding="utf-8"?>
<!-- Generator: Adobe Illustrator 16.0.0, SVG Export Plug-In . SVG Version: 6.00 Build 0)  -->
<!DOCTYPE svg PUBLIC "-//W3C//DTD SVG 1.1//EN" "http://www.w3.org/Graphics/SVG/1.1/DTD/svg11.dtd">
<svg version="1.1" id="Layer_1" xmlns="http://www.w3.org/2000/svg" xmlns:xlink="http://www.w3.org/1999/xlink" x="0px" y="0px"
	 width="427.756px" height="115.715px" viewBox="0 0 427.756 115.715" enable-background="new 0 0 427.756 115.715"
	 xml:space="preserve">
<path fill="#F80046" d="M278.663,70.578c-4.568,0-7.586-1.34-10.742-6.266c-3.076-4.896-8.232-13.135-8.232-13.135l22.424-31.244
	h-19.475l-17.804,24.793V0h-16.272v85.873h16.272V58.615c0,0,9.114,14.314,11.882,18.727c4.463,6.807,10.411,8.605,20.285,8.605
	l4.758-0.012V70.584C280.03,70.584,280.032,70.578,278.663,70.578z"/>
<path fill="#F80046" d="M424.309,70.578c-4.57,0-7.586-1.34-10.742-6.266c-3.078-4.896-8.234-13.135-8.234-13.135l22.424-31.244
	h-19.475l-17.803,24.793V0h-16.273v85.873h16.273V58.615c0,0,9.113,14.314,11.883,18.727c4.461,6.807,10.41,8.605,20.285,8.605
	l4.756-0.012V70.584C425.674,70.584,425.676,70.578,424.309,70.578z"/>
<path fill="#F80046" d="M25.104,86.586c-10.136,0-18.412-1.859-25.104-8.738l10.415-10.414c3.439,3.439,9.481,4.648,14.781,4.648
	c6.417,0,9.484-2.137,9.484-5.949c0-1.582-0.369-2.887-1.3-3.914c-0.836-0.836-2.232-1.49-4.371-1.768l-7.995-1.113
	c-5.858-0.838-10.321-2.791-13.296-5.859c-3.071-3.16-4.556-7.623-4.556-13.293c0-12.088,9.111-20.924,24.172-20.924
	c9.484,0,16.645,2.232,22.315,7.904L39.422,37.393c-4.185-4.184-9.671-3.904-12.553-3.904c-5.671,0-7.995,3.256-7.995,6.137
	c0,0.838,0.279,2.045,1.302,3.068c0.836,0.838,2.229,1.674,4.557,1.953l7.994,1.117c5.951,0.834,10.227,2.693,13.018,5.484
	c3.533,3.439,4.925,8.365,4.925,14.514C50.67,79.244,39.051,86.586,25.104,86.586z"/>
<path fill="#F80046" d="M100.257,79.148c-4.836,4.836-10.416,7.438-18.504,7.438c-8.09,0-13.668-2.602-18.501-7.438
	c-6.974-6.973-6.695-16.275-6.695-26.229c0-9.947-0.279-19.246,6.695-26.219c4.833-4.836,10.412-7.439,18.501-7.439
	c8.088,0,13.668,2.604,18.504,7.439c6.972,6.973,6.693,16.271,6.693,26.219C106.95,62.873,107.229,72.176,100.257,79.148z
	 M88.262,36.65c-1.209-1.58-3.533-2.883-6.509-2.883c-2.975,0-5.299,1.303-6.506,2.883c-1.487,1.951-2.418,4.184-2.418,16.27
	c0,12.1,0.931,14.236,2.418,16.189c1.207,1.58,3.531,2.973,6.506,2.973c2.976,0,5.299-1.393,6.509-2.973
	c1.486-1.953,2.416-4.09,2.416-16.189C90.678,40.834,89.748,38.602,88.262,36.65z"/>
<path fill="#F80046" d="M343.292,86.662c-7.717,0-13.574-2.604-18.41-7.439c-6.967-6.971-6.689-16.277-6.689-26.227
	c0-9.953-0.277-19.248,6.689-26.219c4.836-4.836,10.693-7.441,18.41-7.441c12.555,0,22.688,6.975,25.104,21.572h-16.547
	c-1.023-3.721-3.068-7.066-8.463-7.066c-2.977,0-5.205,1.209-6.416,2.789c-1.488,1.953-2.51,4.277-2.51,16.365
	c0,12.094,1.021,14.42,2.51,16.371c1.211,1.582,3.439,2.791,6.416,2.791c5.395,0,7.439-3.348,8.463-7.068h16.547
	C365.979,79.686,355.846,86.662,343.292,86.662z"/>
<path fill="#F80046" d="M204.174,90.904c0,8.715-6.019,10.256-9.911,10.256l-5.917,0.039v14.516l7.217,0.025
	c16.193-0.104,25.025-8.564,25.025-24.807l-0.057-48.877c0-7.623-3.51-13.67-8.645-17.572c-4.58-3.479-10.461-5.227-16.324-5.227
	c-7.717,0-13.575,2.605-18.406,7.441c-6.977,6.971-6.696,16.266-6.696,26.219c0,9.949-0.281,19.256,6.696,26.227
	c4.831,4.836,10.689,7.439,18.406,7.439c2.994,0,5.695-0.598,8.611-1.998V90.904z M195.657,72.08c-2.977,0-5.207-1.209-6.415-2.791
	c-1.489-1.951-2.511-4.277-2.511-16.371c0-12.088,1.021-14.412,2.511-16.365c1.208-1.58,3.438-2.789,6.415-2.789
	c5.301,0,7.363,3.232,8.404,6.879v24.561C203.02,68.844,200.958,72.08,195.657,72.08z"/>
<path fill="#F80046" d="M163.899,48.516c0-6.756,0.27-14.871-6.696-21.834c-4.833-4.836-10.412-7.439-18.502-7.439
	c-8.088,0-13.668,2.604-18.502,7.439c-6.973,6.973-6.695,15.504-6.695,21.83l-0.005,37.496l16.259-0.004l0.017-37.492
	c0-8.461,0.928-9.703,2.418-11.654c1.208-1.58,3.531-3.109,6.508-3.109s5.3,1.529,6.507,3.109c1.487,1.951,2.418,2.973,2.418,11.695
	l-0.03,37.424l16.263,0.025L163.899,48.516z"/>
<polygon fill="#F80046" points="302.75,13.18 302.75,0.016 286.54,0.014 286.538,13.152 "/>
<path fill="#F80046" d="M286.103,19.941l16.545,0.01l0.003,40.416c0,7.209,4.623,10.205,10.025,10.205l3.766,0.004v15.383
	l-5.291,0.037c-16.514-0.104-25.026-9.15-25.026-25.063L286.103,19.941z"/>
</svg>
