<?xml version="1.0" encoding="utf-8"?>
<!-- Generator: Adobe Illustrator 22.1.0, SVG Export Plug-In . SVG Version: 6.00 Build 0)  -->
<svg version="1.1" xmlns="http://www.w3.org/2000/svg" xmlns:xlink="http://www.w3.org/1999/xlink" x="0px" y="0px"
	 viewBox="0 0 250 160" style="enable-background:new 0 0 250 160;" xml:space="preserve">
<style type="text/css">
	.st0{display:none;}
	.st1{display:inline;fill:#D32323;}
	.st2{fill:#FFFFFF;}
	.st3{fill:#050505;}
	.st4{fill-rule:evenodd;clip-rule:evenodd;fill:#050505;}
	.st5{fill-rule:evenodd;clip-rule:evenodd;fill:#D32323;}
</style>
<g id="background" class="st0">
	<rect class="st1" width="250" height="160"/>
</g>
<g id="logos">
	<path class="st2" d="M209.8,82.9l-0.3-0.1c0,0,4.5-1,6.6-5.4c1.2-2.6,1.3-5.6,0.1-8.2c-1.9-4.5-4.8-8.4-8.5-11.6
		c-1.8-1.6-4.2-2.5-6.6-2.5c-5.9,0-8.4,4.7-8.4,4.7l0-16.2c0-5.5-4.4-9.9-9.9-10c-2.3,0-6.7,0.8-9.7,1.6c-2.9,0.8-5.7,1.8-8.4,3.1
		c-2.5,1.2-4.4,3.4-5.2,6c-0.8,2.6-0.5,5.5,0.9,7.9l8.1,14.1c0,0-1.9-1.2-4.7-1.2c-4.3,0-8.1,2.7-9.4,6.8c-0.1,0.3-0.2,0.6-0.3,0.9
		c-1.3-1.2-2.9-2.4-4.8-3.3c-2.6-1.2-5.5-1.9-8.4-1.9c-2.2,0-4.4,0.4-6.4,1.1c-1.5-0.8-3.2-1.2-5-1.2c-2.5,0-4.9,0.9-6.7,2.4v-2
		c0-5.9-4.8-10.7-10.7-10.7c-5.9,0-10.7,4.8-10.7,10.7v5.9c-4-4.2-9.4-6-14.3-6c-3.6,0-8.5,1.2-12.6,4.5c-1.4-1.9-3.3-3.3-5.6-4
		c-1-0.3-2.1-0.5-3.2-0.5c-4.8,0-8.9,3.1-10.3,7.6L55,76.9l-1.5-3c-2-4.3-8.1-8-14.5-5c-2.6,1.3-4.5,3.5-5.5,6.2s-0.8,5.7,0.5,8.3
		l10.2,21c-3,1.2-5.3,3.6-6.2,6.9c-0.9,3.2-0.3,6.5,1.6,9.1c1.5,2,4.5,4.5,10,4.6c0.2,0,0.4,0,0.6,0c7.8,0,13.5-3.9,15.7-10.6
		c0.9-2.8,1.9-6,3-9.4c0.2,0.4,0.4,0.8,0.6,1.3c3.4,6.4,9.5,9.9,17.4,9.9c7.4,0,12.5-2.5,15.7-5.7c1.8,3.4,5.4,5.6,9.4,5.6
		c2.5,0,4.9-0.9,6.7-2.4v2c0,5.9,4.8,10.7,10.7,10.7c5.8,0,10.6-4.7,10.7-10.4c0.1,0,8.4,0.5,13.9-5.4c0.6-0.6,1.6-1.7,2.6-3.4
		c1.3,0.7,2.8,1.1,4.4,1.1c1.3,0,2.5-0.3,3.7-0.8c0.6,0.8,1.4,1.5,2.2,2.1c4,2.7,8.6,4.6,13.3,5.4c0.5,0.1,1.1,0.1,1.7,0.1
		c5.4,0,9.8-4.2,9.9-9.6l0-0.3l0.2,0.3c1.8,2.9,5,4.7,8.4,4.7c2.3,0,4.6-0.8,6.3-2.3c3.7-3.1,6.8-7,8.8-11.3
		c1.2-2.6,1.3-5.6,0.2-8.2C214.7,85.8,212.5,83.8,209.8,82.9z"/>
	<path class="st3" d="M161.2,97.5c1.2,0,2.1,0.9,2.1,2.1c0,1.2-1,2.1-2.1,2.1c-1.2,0-2.1-0.9-2.1-2.1C159,98.4,160,97.5,161.2,97.5z
		 M161.2,101.4c1,0,1.8-0.8,1.8-1.8c0-1-0.8-1.8-1.8-1.8c-1,0-1.8,0.8-1.8,1.8C159.4,100.6,160.2,101.4,161.2,101.4z M160.4,98.4
		h0.9c0.6,0,0.9,0.2,0.9,0.7c0,0.4-0.3,0.6-0.6,0.7l0.7,1.1h-0.4l-0.7-1h-0.4v1h-0.3V98.4z M160.7,99.4h0.4c0.3,0,0.7,0,0.7-0.4
		c0-0.3-0.3-0.4-0.6-0.4h-0.5V99.4z"/>
	<path class="st4" d="M115.9,105.5c0,2.1-1.7,3.8-3.8,3.8s-3.8-1.7-3.8-3.8V67.9c0-2.1,1.7-3.8,3.8-3.8s3.8,1.7,3.8,3.8V105.5z"/>
	<path class="st3" d="M83.1,94.9l13.6,0c0.1,0,0.2,0,0.3,0c1.9-0.1,3.7-1.7,3.7-4.2c0,0,0,0,0,0c0-0.1,0-0.1,0-0.2
		c-0.7-13.8-9.5-15.8-13.6-15.8c-4.2,0-13.6,2.5-13.6,17.8c0.1,5.8,1.3,16.8,13.4,16.8c10.5,0,12.8-6.1,12.8-7.6
		c0-2.3-1.9-4.2-4-3.5c-1.7,0.6-4.1,4.1-8,4.1c-5.5,0-6.2-5-6.2-6.1C81.5,95.3,82,95,83.1,94.9z M81.5,88.2c0.3-5.2,4.2-6.1,6-6.1
		c1.8,0,5.8,0.9,6,6.2c0,0.3-0.2,0.4-0.3,0.4H81.8C81.6,88.7,81.5,88.5,81.5,88.2z"/>
	<path class="st3" d="M52.1,104.6L40.3,80.4c-0.9-1.9-0.1-4.3,1.8-5.2c1.9-0.9,4.3-0.1,5.2,1.8l9.1,18.7l5.6-18.2
		c0.6-2,2.8-3.2,4.9-2.6c2,0.6,3.2,2.8,2.6,4.9c0,0-6.3,20.7-10.1,32.6c-1.3,3.9-4.6,5.9-9.5,5.8c-4.9-0.1-5.6-3-5.1-4.9
		c0.6-2.1,2.3-2.7,4-2.7C53.2,110.5,53.8,107.9,52.1,104.6z"/>
	<path class="st3" d="M153.2,90.4c0-5-0.6-11.8-6.9-14.7c-3.5-1.7-7.9-1.6-11.2,0.3c-0.7,0.4-1.3,0.8-1.9,1.3
		c-0.4-1.7-1.9-2.9-3.7-2.9c-2.1,0-3.8,1.7-3.8,3.8v37.6c0,2.1,1.7,3.8,3.8,3.8c2.1,0,3.8-1.7,3.8-3.8v-9.9c0,0,2.5,3.1,6.6,3.2
		C154.2,109.5,153.3,93.9,153.2,90.4z M145.7,93.3c0,3,0,8.4-5.4,8.4c-5.4,0-5.4-5.4-5.4-8.4v-2.7c0-3,0-8.4,5.4-8.4
		c5.4,0,5.4,5.4,5.4,8.4V93.3z"/>
	<path class="st5" d="M165.1,72.3l13.2,6.4c2.5,1.2,2.1,5-0.6,5.7l-14.2,3.6c-1.8,0.4-3.5-0.8-3.7-2.6c-0.4-3.9,0-7.7,1.2-11.3
		C161.5,72.3,163.5,71.5,165.1,72.3z"/>
	<path class="st5" d="M170.4,99.5l9.8-10.9c1.9-2.1,5.4-0.7,5.3,2.1l-0.5,14.7c-0.1,1.8-1.7,3.2-3.5,2.9c-3.8-0.6-7.4-2.1-10.5-4.3
		C169.4,102.9,169.2,100.8,170.4,99.5z"/>
	<path class="st5" d="M193.7,84.9l14,4.5c1.7,0.6,2.6,2.5,1.8,4.2c-1.6,3.4-4,6.5-7,8.9c-1.4,1.2-3.5,0.8-4.5-0.7l-7.8-12.5
		C188.7,87,191,84.1,193.7,84.9z"/>
	<path class="st5" d="M207.9,76l-14.1,4c-2.7,0.8-4.9-2.3-3.3-4.6l8.2-12.2c1-1.5,3.1-1.8,4.5-0.6c2.8,2.5,5.1,5.6,6.7,9.2
		C210.6,73.6,209.7,75.5,207.9,76z"/>
	<path class="st5" d="M174.9,41.8c-2.5,0.7-5,1.6-7.3,2.7c-1.6,0.8-2.2,2.7-1.3,4.2l13.8,23.9c1.5,2.7,5.6,1.6,5.6-1.5l0-27.6
		c0-1.8-1.5-3.2-3.3-3C180,40.7,177.5,41.1,174.9,41.8z"/>
</g>
</svg>
