<?xml version="1.0" encoding="utf-8"?>
<!-- Generator: Adobe Illustrator 22.1.0, SVG Export Plug-In . SVG Version: 6.00 Build 0)  -->
<svg version="1.1" xmlns="http://www.w3.org/2000/svg" xmlns:xlink="http://www.w3.org/1999/xlink" x="0px" y="0px"
	 viewBox="0 0 100 100" style="enable-background:new 0 0 100 100;" xml:space="preserve">
<style type="text/css">
	.st0{display:none;}
	.st1{display:inline;fill:#D32323;}
	.st2{fill:#D32323;}
	.st3{fill-rule:evenodd;clip-rule:evenodd;fill:#FFFFFF;}
</style>
<g id="background" class="st0">
	<rect x="5" y="5" class="st1" width="90" height="90"/>
</g>
<g id="logos">
	<path class="st2" d="M92,100H8c-4.4,0-8-3.6-8-8V8c0-4.4,3.6-8,8-8h84c4.4,0,8,3.6,8,8v84C100,96.4,96.4,100,92,100z"/>
	<g>
		<path class="st3" d="M34.4,48.4l10.4,5.1c2,1,1.7,3.9-0.5,4.5l-11.3,2.8c-1.4,0.4-2.8-0.6-3-2.1c-0.4-3.1,0-6.1,0.9-8.9
			C31.5,48.4,33.1,47.7,34.4,48.4z"/>
		<path class="st3" d="M38.6,69.9l7.8-8.6c1.5-1.7,4.3-0.5,4.2,1.7l-0.4,11.6c-0.1,1.4-1.4,2.5-2.8,2.3c-3-0.5-5.8-1.7-8.3-3.4
			C37.8,72.6,37.6,70.9,38.6,69.9z"/>
		<path class="st3" d="M57,58.4L68.1,62c1.4,0.4,2,2,1.4,3.3c-1.3,2.7-3.2,5.1-5.5,7.1c-1.1,0.9-2.8,0.7-3.6-0.6l-6.2-9.9
			C53.1,60,54.9,57.7,57,58.4z"/>
		<path class="st3" d="M68.3,51.3l-11.2,3.2c-2.1,0.6-3.9-1.8-2.6-3.6l6.5-9.6c0.8-1.2,2.5-1.4,3.6-0.5c2.2,2,4.1,4.4,5.3,7.3
			C70.4,49.4,69.7,50.9,68.3,51.3z"/>
		<path class="st3" d="M42.2,24.2c-2,0.5-3.9,1.3-5.7,2.1c-1.3,0.6-1.7,2.2-1,3.4l10.9,18.9c1.2,2.1,4.5,1.3,4.5-1.2V25.6
			c0-1.4-1.2-2.5-2.6-2.4C46.2,23.3,44.2,23.7,42.2,24.2z"/>
	</g>
</g>
</svg>
