<?xml version="1.0" standalone="no"?>
<!DOCTYPE svg PUBLIC "-//W3C//DTD SVG 20010904//EN"
 "http://www.w3.org/TR/2001/REC-SVG-20010904/DTD/svg10.dtd">
<svg version="1.0" xmlns="http://www.w3.org/2000/svg"
 width="1040.000000pt" height="1040.000000pt" viewBox="0 0 1040.000000 1040.000000"
 preserveAspectRatio="xMidYMid meet">
<metadata>
Created by potrace 1.11, written by Peter Selinger 2001-2013
</metadata>
<g transform="translate(0.000000,1040.000000) scale(0.100000,-0.100000)"
fill="#000000" stroke="none">
<path d="M7325 10241 c-113 -39 -177 -87 -239 -180 -62 -92 -73 -147 -81 -416
-3 -104 -7 -239 -10 -300 -5 -133 -15 -415 -20 -585 -2 -69 -7 -192 -10 -275
-3 -82 -7 -213 -10 -290 -3 -77 -7 -201 -10 -275 -10 -256 -26 -718 -30 -860
-6 -196 -16 -478 -20 -565 -2 -49 -7 -171 -10 -270 -3 -99 -8 -225 -10 -280
-2 -55 -7 -185 -10 -290 -3 -104 -8 -248 -11 -320 -24 -602 -26 -783 -9 -839
24 -80 57 -136 113 -192 172 -176 451 -177 622 -3 65 65 71 73 92 119 43 96
43 93 63 725 2 61 6 189 10 285 9 267 14 398 20 595 3 99 8 227 10 285 3 58 7
186 10 285 3 99 8 224 10 278 3 54 7 182 10 285 3 103 7 232 10 287 2 55 7
181 10 280 3 99 8 236 10 305 13 323 16 405 20 540 4 135 10 302 20 580 25
677 25 738 1 808 -41 120 -145 228 -266 277 -64 26 -218 29 -285 6z"/>
<path d="M1309 8313 c-152 -31 -279 -135 -333 -273 -36 -89 -37 -157 -11 -440
2 -19 6 -82 10 -140 3 -58 8 -116 10 -130 2 -14 6 -65 10 -115 3 -49 8 -115
10 -145 2 -30 7 -95 10 -145 4 -49 8 -106 10 -125 3 -19 7 -73 10 -120 6 -90
12 -179 20 -270 2 -30 7 -91 10 -135 8 -110 15 -201 20 -260 2 -27 7 -93 10
-145 3 -52 8 -111 10 -130 3 -19 7 -78 10 -130 3 -52 7 -111 10 -130 2 -19 7
-75 10 -125 3 -49 8 -112 10 -140 5 -50 11 -135 20 -275 3 -41 7 -95 10 -120
2 -25 7 -85 10 -135 4 -49 8 -108 10 -130 2 -22 6 -79 9 -125 4 -47 9 -114 11
-150 12 -151 23 -289 30 -395 4 -44 8 -87 10 -95 2 -8 7 -40 10 -70 7 -60 58
-357 74 -430 6 -25 12 -54 15 -65 142 -643 424 -1267 773 -1705 142 -179 359
-402 508 -523 136 -111 217 -168 395 -282 129 -83 369 -203 546 -274 112 -44
334 -119 376 -126 15 -3 39 -10 53 -15 47 -18 296 -72 430 -94 17 -3 44 -7 60
-10 17 -3 71 -10 120 -16 50 -6 108 -13 130 -16 224 -27 816 -27 1025 1 116
15 137 18 155 21 11 3 38 7 59 9 21 3 78 14 125 25 47 10 100 21 116 24 17 3
55 13 85 21 30 9 62 18 71 20 99 23 362 117 521 186 606 264 1184 711 1614
1249 319 399 568 857 734 1347 28 83 52 160 55 170 2 10 13 52 24 93 22 80 66
288 76 355 3 23 7 51 10 64 2 13 7 49 11 80 3 31 8 65 10 76 25 123 22 1110
-3 1219 -25 107 -100 213 -191 270 -134 82 -327 86 -462 9 -100 -57 -196 -189
-214 -293 -4 -19 -6 -102 -5 -185 6 -831 4 -883 -31 -1072 -6 -35 -13 -75 -16
-90 -57 -316 -240 -746 -459 -1083 -46 -70 -216 -302 -239 -326 -6 -6 -33 -37
-61 -70 -27 -32 -111 -120 -185 -194 -332 -333 -720 -602 -1130 -783 -19 -9
-60 -26 -90 -40 -140 -62 -504 -174 -630 -193 -19 -3 -42 -7 -50 -9 -24 -7
-77 -15 -180 -30 -87 -12 -472 -13 -580 -1 -99 11 -156 19 -270 37 -747 121
-1371 494 -1795 1074 -231 316 -422 725 -536 1150 -17 61 -32 121 -35 135 -3
14 -9 41 -14 60 -5 19 -12 51 -15 70 -3 19 -10 51 -15 70 -5 19 -14 69 -20
110 -7 41 -14 84 -15 95 -12 69 -25 181 -30 250 -4 44 -8 98 -10 120 -2 22 -6
78 -10 125 -4 47 -8 101 -10 120 -2 19 -6 78 -10 130 -4 52 -8 113 -10 135 -2
22 -6 78 -9 125 -4 47 -8 101 -11 120 -2 19 -7 73 -10 120 -4 47 -8 101 -10
120 -2 19 -6 78 -10 130 -3 52 -8 111 -10 130 -2 19 -7 78 -10 130 -3 52 -8
106 -10 120 -2 14 -6 70 -10 125 -3 55 -8 111 -10 125 -2 14 -7 69 -10 122 -3
54 -8 106 -9 115 -2 10 -7 69 -11 131 -3 62 -8 123 -10 135 -2 12 -6 63 -10
112 -9 132 -23 307 -30 385 -3 25 -7 81 -10 125 -12 166 -14 192 -20 260 -3
39 -8 90 -10 115 -3 25 -7 86 -10 135 -4 50 -8 104 -10 120 -2 17 -6 75 -10
130 -9 117 -32 201 -76 270 -98 156 -294 236 -480 198z"/>
<path d="M5229 7075 c-76 -20 -140 -57 -200 -115 -83 -81 -127 -182 -130 -295
-1 -56 7 -343 16 -550 2 -49 6 -171 10 -270 3 -99 7 -229 10 -290 2 -60 7
-193 10 -295 3 -102 8 -234 10 -295 8 -203 23 -647 30 -864 7 -198 38 -285
138 -384 150 -148 398 -165 566 -38 64 48 106 100 145 181 30 65 31 66 30 230
0 91 -4 257 -8 370 -5 113 -9 243 -11 290 -8 219 -16 457 -20 575 -3 72 -7
193 -10 270 -6 149 -14 382 -20 580 -8 265 -17 482 -20 519 -28 265 -291 449
-546 381z"/>
<path d="M3493 6614 c-168 -34 -311 -178 -341 -344 -9 -51 -8 -161 2 -245 3
-22 8 -71 11 -110 3 -38 8 -95 11 -125 4 -30 8 -75 10 -100 1 -25 5 -72 8
-105 3 -33 8 -94 11 -135 3 -41 7 -88 10 -105 2 -16 7 -66 10 -110 3 -44 8
-100 10 -125 3 -25 7 -74 10 -110 3 -36 8 -90 10 -120 3 -30 8 -80 10 -110 2
-30 7 -82 10 -115 5 -57 9 -99 20 -225 3 -30 7 -80 10 -110 7 -64 11 -123 20
-238 3 -45 8 -95 10 -111 2 -15 6 -66 10 -112 4 -46 8 -100 10 -119 2 -19 7
-72 10 -117 9 -126 19 -170 53 -242 30 -62 121 -161 170 -182 17 -7 32 -17 32
-20 0 -4 10 -9 23 -12 12 -3 40 -10 62 -16 60 -16 168 -14 232 4 149 43 272
176 305 328 10 47 6 244 -6 317 -4 22 -9 86 -22 245 -2 28 -6 68 -9 90 -2 22
-7 76 -10 120 -3 44 -7 96 -10 115 -2 19 -7 71 -11 115 -3 44 -8 96 -10 115
-2 19 -6 71 -9 115 -4 44 -8 94 -9 110 -2 17 -6 68 -10 115 -4 47 -9 101 -11
120 -3 19 -9 94 -15 165 -6 72 -13 150 -15 175 -2 25 -7 79 -10 120 -4 41 -8
86 -10 100 -2 14 -7 68 -10 120 -4 52 -9 108 -11 123 -2 16 -6 63 -9 105 -3
42 -7 93 -10 112 -2 19 -7 71 -10 114 -10 130 -51 225 -132 303 -108 106 -251
148 -400 117z"/>
</g>
</svg>
